PathFileType	4	(X/Y/Z)	Patient4_TMGait_0pt7_02_right_29.trc.trc
DataRate	CameraRate	NumFrames	NumMarkers	Units	OrigDataRate	OrigDataStartFrame	OrigNumFrames
86.956521739130	86.956521739130	6	33	mm	86.956521739130	124	       141
Frame#	Time	Sacral			L.Shoulder			Chest			R.Shoulder			Neck			R.ASIS			L.ASIS			R.Thigh.Superior			R.Thigh.Lateral			R.Thigh.Inferior			R.Patella			L.Thigh.Superior			L.Thigh.Lateral			L.Thigh.Inferior			L.Patella			L.Shank.Superior			L.Shank.Lateral			L.Shank.Inferior			R.Shank.Superior			R.Shank.Lateral			R.Shank.Inferior			R.Heel			R.Midfoot.Superior			R.Midfoot.Lateral			R.Toe			L.Heel			L.Midfoot.Lateral			L.Midfoot.Superior			L.Toe			L.Elbow			L.Wrist			R.Elbow			R.Wrist			
		X1	Y1	Z1	X2	Y2	Z2	X3	Y3	Z3	X4	Y4	Z4	X5	Y5	Z5	X6	Y6	Z6	X7	Y7	Z7	X8	Y8	Z8	X9	Y9	Z9	X10	Y10	Z10	X11	Y11	Z11	X12	Y12	Z12	X13	Y13	Z13	X14	Y14	Z14	X15	Y15	Z15	X16	Y16	Z16	X17	Y17	Z17	X18	Y18	Z18	X19	Y19	Z19	X20	Y20	Z20	X21	Y21	Z21	X22	Y22	Z22	X23	Y23	Z23	X24	Y24	Z24	X25	Y25	Z25	X26	Y26	Z26	X27	Y27	Z27	X28	Y28	Z28	X29	Y29	Z29	X30	Y30	Z30	X31	Y31	Z31	X32	Y32	Z32	X33	Y33	Z33	

124	33.944500000000	838.467768300198	993.179341349128	456.016291556888	1047.673599549388	1415.237145336726	282.294603242689	1139.226197650496	1339.692722173330	448.938147900440	1047.726179146604	1419.134041661289	616.609754839289	1042.643138120421	1474.263983619507	435.988022145281	1055.474426004562	922.704738040698	586.380235427893	1060.163426677809	941.011518823546	312.533833059822	1133.358700096805	755.572918456247	561.405810595060	1086.177515175599	632.154261994972	630.539126340548	1180.765665093785	600.071961456026	555.245489633256	1211.934058467223	515.141652984964	569.696921568567	1056.159310597061	714.373143969521	341.462997985850	940.837396379546	624.343495968244	269.690082846035	991.976351020152	527.084951949421	337.621146245226	973.035015805099	458.140965393307	344.825555640969	931.398841889540	394.783650668510	332.208704339008	820.835671280508	304.780647652210	273.798615839376	838.872841194580	183.842673472975	343.869880502968	1194.703618703787	423.741957284505	579.720216251045	1136.746598707634	311.254242947931	640.798468000763	1204.413815352661	224.335092308192	589.732953202138	1106.486946955844	44.577371872617	559.587193161699	1270.313684424998	111.478266335952	601.549703660684	1189.640670113900	40.134286515893	633.210783790443	1393.548599155037	70.499811388501	627.337638376373	684.050435184748	42.822054770953	373.374382511734	761.092778605255	37.397497525302	296.575906997107	845.195739055705	95.574243630236	327.461427916981	973.050969981264	39.280334210365	302.140474942645	1115.737488420021	1098.806044322160	121.506308590042	1357.370598252124	1109.645670297465	197.543371426837	895.298619747691	1112.774213521775	735.813950515914	852.398874641705	854.413124934365	742.297786416580	
125	33.956000000000	840.284368150254	990.931433017238	459.903024037399	1046.417675472852	1413.786820283985	285.876821613005	1139.490322952236	1338.595004898705	451.960874910463	1048.461099673712	1417.443587678748	620.300051460502	1042.289843328215	1472.723572365975	439.728317594654	1058.187805785244	920.571933138834	588.843849925580	1061.247641709847	939.719828859226	315.342606547473	1136.021802558762	752.219272099700	563.286686452886	1087.023838334249	629.129168955145	630.631217503510	1181.514172141501	596.959704723678	555.334439183413	1211.431998315791	510.993171749780	568.503561465577	1056.839610650607	712.630793730655	342.866447094465	940.527115774210	623.105931229354	271.884745707260	992.066592196406	525.241872547962	338.883862985954	972.890015572209	455.579773148430	345.778145838545	929.461429304316	393.063634246027	333.273684443490	816.898617461127	305.462318447643	274.871111656933	832.994901929212	183.793154167480	343.966234909489	1192.904029533167	419.308032334087	578.445333307737	1133.389744519234	307.768019324601	639.865272492932	1198.344710539702	219.685255852427	587.614524022601	1095.561240430497	42.977423644442	558.400579133826	1261.091668468998	106.408708338615	598.865604087759	1178.745236722951	37.880096165196	632.062811299180	1383.714306504877	62.704378046262	624.704740904945	676.108378091659	44.679088645521	373.124981269347	753.163908700830	38.209746605391	296.477724413477	837.829654657149	95.767665414712	327.178498059789	965.032948118659	39.098994091890	302.007930506752	1115.938833607154	1097.621838576337	124.800633488035	1356.738138125229	1116.195909620144	201.302605220522	891.011739659575	1113.829266156905	737.582354697103	842.131040156174	856.345104007172	742.824089459358	
126	33.967500000000	841.840575609323	989.171168454740	463.667589425609	1045.628597587103	1412.593531374694	289.525319438764	1139.910175396780	1337.655170585424	455.150753136795	1049.334282873019	1416.040871743724	624.067900175186	1042.328189842226	1471.507644071722	443.561742700261	1060.635002889307	918.956923105860	591.500572467238	1062.020879083052	938.744072346584	318.185809417215	1138.654719091961	749.796513816737	564.998158501597	1088.411804580257	627.093743215441	630.891189171557	1182.506635784116	594.790641272153	555.292858119269	1211.426478183776	507.782234116218	567.443229714304	1057.831909909666	711.286927603817	344.486072158774	940.861994815416	621.925477220628	274.311043649260	993.184649499341	523.558592054814	340.355615287527	973.919663877226	452.989116445414	346.801705298433	928.424838399515	391.394787789255	334.435133347425	813.693812984179	306.549874534066	276.073631323825	827.644764403573	184.085498662329	344.027567869332	1191.597396910535	415.798076961146	577.341611020024	1130.705235617978	305.242705311260	639.354954224122	1192.734784914678	215.968841157608	585.774210143439	1085.098391963530	42.024524861117	557.674478702769	1252.199537851458	102.461215068866	596.539116811264	1168.380260299612	36.458741193909	631.301917462639	1374.296149622066	56.341058078475	622.422566117439	668.333558030052	47.425030881911	372.814345093326	745.328552524872	39.484231204761	296.348053417706	830.789239617082	96.087197642068	326.789925832780	956.989644631590	38.851796222648	301.893563193634	1115.345625981585	1096.176471279513	128.447564947270	1355.421754009139	1121.528075255667	204.843395950225	887.871881423044	1114.516229684240	739.343780691589	833.586537534550	857.902235647878	743.465257184974	
127	33.979000000000	843.112846530848	987.953860560605	467.292766766534	1045.342300443764	1411.741082685598	293.200469157315	1140.467851532943	1336.922010318606	458.475005195538	1050.327946764226	1414.997742273129	627.860682591825	1042.763750556444	1470.680478592936	447.435601440193	1062.770442365060	917.916483683333	594.358978616001	1062.415541386910	938.144740343104	321.014565726581	1141.128365816134	748.361934332733	566.541957298451	1090.240972506927	626.047387553263	631.429849586400	1183.629405643977	593.512684009196	555.260983152331	1211.740099788816	505.472518769286	566.723680304983	1059.118682746474	710.407055788181	346.336337933224	941.900240777591	620.827438862491	276.925096775253	995.408969830666	522.090731593638	341.999913102473	976.198614544673	450.442308213977	347.830146274535	928.393760566839	389.832732191463	335.642594097752	811.334106180409	308.117070243992	277.383769965540	822.932094314197	184.806540325960	344.054826351089	1190.644098802710	413.203133238770	576.568112927652	1128.547974501379	303.631275108878	639.321684715327	1187.571802724484	213.197982520292	584.339631692757	1075.325605271202	41.611021027586	557.351907176554	1243.760541180519	99.658778685294	594.706598481181	1158.734320388687	35.749830736314	630.901907279895	1365.423109066081	51.557055338524	620.653602984642	660.825755095554	51.255514484210	372.466153479528	737.642946725441	41.368075402176	296.199396641662	824.157303817948	96.574224055354	326.309077256761	948.912700608702	38.516779561528	301.818910855884	1113.922980332589	1094.550736913377	132.446682582370	1353.484661161447	1125.543283912125	208.168358910735	885.913892159401	1114.839487186724	741.139548041168	826.928156369529	859.035935705356	744.204199894723	
128	33.990500000000	844.106077313047	987.287201637273	470.798330825512	1045.540801364512	1411.286977594785	296.863550589952	1141.132424478384	1336.433536676357	461.889579766997	1051.414763252226	1414.362327364776	631.626632076122	1043.559678162393	1470.275353675997	451.293659150737	1064.581010905981	917.459160431572	597.411368399122	1062.396866198247	937.950007687230	323.783576904688	1143.332544995185	747.856735108625	567.971947417319	1092.288014396052	625.862107562023	632.317684637180	1184.723353506709	592.961626605722	555.408385785250	1212.117972140064	503.921115549366	566.511883414781	1060.689774039290	710.029055678394	348.407409973864	943.696210515751	619.828795060772	279.667059427156	998.801106252062	520.885749991698	343.761126764438	979.779164852277	448.014918545380	348.791741364883	929.467696178993	388.429025239209	336.844233822880	809.935876003000	310.221938803657	278.778177216530	818.974348002538	186.036364077739	344.061015222358	1189.810413143901	411.411945249921	576.235485775942	1126.645880291953	302.787567888694	639.751040570750	1182.722136193798	211.278858614541	583.378985703480	1066.289155807914	41.600791763707	557.348295830237	1235.766905230278	97.895089179378	593.426683245658	1149.822674449961	35.582980597045	630.805493556239	1357.087345330611	48.286875647755	619.462908084656	653.714721585265	56.349199764338	372.120663970883	730.188838143013	44.022387245135	296.055464048311	818.024092535398	97.284247185434	325.769542294990	940.807561564263	38.070921663269	301.805346857617	1111.648371272293	1092.840077377346	136.784195809953	1350.982304317995	1128.167196815219	211.293579889553	885.126276897847	1114.829092843379	743.015684570312	822.302359143241	859.716053663805	745.035580442062	
129	34.002000000000	844.843863917053	987.138341560778	474.234749759267	1046.148222586479	1411.255565245353	300.480010015015	1141.863606675352	1336.214896269993	465.341706458981	1052.562258560790	1414.152860610830	635.319869272232	1044.641052522250	1470.292288999619	455.082426858015	1066.080113711704	917.549999187055	600.626582774266	1061.968235751806	938.151402174909	326.458144656828	1145.177760799638	748.103071324350	569.399993383110	1094.217943859087	626.305537238945	633.579915021643	1185.587886438594	592.897117056082	555.904760501454	1212.262870734169	502.925490696899	566.897181432125	1062.547289382261	710.163697615740	350.667931005514	946.298194578243	618.941703302101	282.468253299181	1003.398512542129	519.984366236420	345.575906615710	984.686109285434	445.783641160089	349.627762262745	931.732965096987	387.231314865008	337.999573523060	809.614854927893	312.902856330747	280.238105278783	815.891895148931	187.844895977647	344.074537840819	1188.811166988792	410.251355563446	576.389772776452	1124.670770903572	302.506410857351	640.572591268924	1177.986270018885	210.049863354133	582.897047744981	1057.904921622350	41.851626389738	557.568655648830	1228.125100850366	96.976942625301	592.682702977557	1141.540458875201	35.774305834875	630.938852510722	1349.191790998092	46.312199345742	618.828407750323	647.160432765483	62.853393343525	371.836117139911	723.077962011508	47.614743166532	295.952994050727	812.486624117380	98.291718486849	325.226123826702	932.702562986233	37.494467274704	301.870074354810	1108.514962238072	1091.144380942229	141.431123580898	1347.955924686195	1129.351064906917	214.245301363036	885.453422050159	1114.535651743907	745.020585113479	819.826425589748	859.931844884660	745.968952479941	
